<mxfile host="app.diagrams.net" modified="2023-09-25T21:53:06.303Z" agent="Mozilla/5.0 (Windows NT 10.0; Win64; x64) AppleWebKit/537.36 (KHTML, like Gecko) Chrome/116.0.0.0 Safari/537.36" etag="IgvjHqZP6qeWncIrp5ku" version="21.8.2" type="google">
  <diagram name="Page-1" id="2YBvvXClWsGukQMizWep">
    <mxGraphModel grid="1" page="1" gridSize="10" guides="1" tooltips="1" connect="1" arrows="1" fold="1" pageScale="1" pageWidth="850" pageHeight="1100" math="0" shadow="0">
      <root>
        <mxCell id="0" />
        <mxCell id="1" parent="0" />
        <mxCell id="aM9ryv3xv72pqoxQDRHE-1" value=":Usuario" style="shape=umlLifeline;perimeter=lifelinePerimeter;whiteSpace=wrap;html=1;container=0;dropTarget=0;collapsible=0;recursiveResize=0;outlineConnect=0;portConstraint=eastwest;newEdgeStyle={&quot;edgeStyle&quot;:&quot;elbowEdgeStyle&quot;,&quot;elbow&quot;:&quot;vertical&quot;,&quot;curved&quot;:0,&quot;rounded&quot;:0};" vertex="1" parent="1">
          <mxGeometry x="50" y="40" width="100" height="560" as="geometry" />
        </mxCell>
        <mxCell id="aM9ryv3xv72pqoxQDRHE-2" value="" style="html=1;points=[];perimeter=orthogonalPerimeter;outlineConnect=0;targetShapes=umlLifeline;portConstraint=eastwest;newEdgeStyle={&quot;edgeStyle&quot;:&quot;elbowEdgeStyle&quot;,&quot;elbow&quot;:&quot;vertical&quot;,&quot;curved&quot;:0,&quot;rounded&quot;:0};" vertex="1" parent="aM9ryv3xv72pqoxQDRHE-1">
          <mxGeometry x="45" y="70" width="10" height="490" as="geometry" />
        </mxCell>
        <mxCell id="aM9ryv3xv72pqoxQDRHE-5" value=":Sistema" style="shape=umlLifeline;perimeter=lifelinePerimeter;whiteSpace=wrap;html=1;container=0;dropTarget=0;collapsible=0;recursiveResize=0;outlineConnect=0;portConstraint=eastwest;newEdgeStyle={&quot;edgeStyle&quot;:&quot;elbowEdgeStyle&quot;,&quot;elbow&quot;:&quot;vertical&quot;,&quot;curved&quot;:0,&quot;rounded&quot;:0};" vertex="1" parent="1">
          <mxGeometry x="220" y="33" width="100" height="570" as="geometry" />
        </mxCell>
        <mxCell id="aM9ryv3xv72pqoxQDRHE-6" value="" style="html=1;points=[];perimeter=orthogonalPerimeter;outlineConnect=0;targetShapes=umlLifeline;portConstraint=eastwest;newEdgeStyle={&quot;edgeStyle&quot;:&quot;elbowEdgeStyle&quot;,&quot;elbow&quot;:&quot;vertical&quot;,&quot;curved&quot;:0,&quot;rounded&quot;:0};" vertex="1" parent="aM9ryv3xv72pqoxQDRHE-5">
          <mxGeometry x="45" y="80" width="10" height="490" as="geometry" />
        </mxCell>
        <mxCell id="BNHw7AEYcydwpRrHN42A-1" value=":Base de datos" style="shape=umlLifeline;perimeter=lifelinePerimeter;whiteSpace=wrap;html=1;container=0;dropTarget=0;collapsible=0;recursiveResize=0;outlineConnect=0;portConstraint=eastwest;newEdgeStyle={&quot;edgeStyle&quot;:&quot;elbowEdgeStyle&quot;,&quot;elbow&quot;:&quot;vertical&quot;,&quot;curved&quot;:0,&quot;rounded&quot;:0};" vertex="1" parent="1">
          <mxGeometry x="375" y="40" width="100" height="560" as="geometry" />
        </mxCell>
        <mxCell id="BNHw7AEYcydwpRrHN42A-2" value="" style="html=1;points=[];perimeter=orthogonalPerimeter;outlineConnect=0;targetShapes=umlLifeline;portConstraint=eastwest;newEdgeStyle={&quot;edgeStyle&quot;:&quot;elbowEdgeStyle&quot;,&quot;elbow&quot;:&quot;vertical&quot;,&quot;curved&quot;:0,&quot;rounded&quot;:0};" vertex="1" parent="BNHw7AEYcydwpRrHN42A-1">
          <mxGeometry x="45" y="80" width="10" height="480" as="geometry" />
        </mxCell>
        <mxCell id="BNHw7AEYcydwpRrHN42A-8" value="" style="endArrow=classic;html=1;rounded=0;" edge="1" parent="1" target="aM9ryv3xv72pqoxQDRHE-1">
          <mxGeometry width="50" height="50" relative="1" as="geometry">
            <mxPoint x="269.5" y="140" as="sourcePoint" />
            <mxPoint x="210" y="140" as="targetPoint" />
          </mxGeometry>
        </mxCell>
        <mxCell id="khGtBQmKXjCLMMluN2qJ-1" value="&lt;span style=&quot;font-size: 10px;&quot;&gt;MensajeIngrese_Token();&lt;/span&gt;" style="text;html=1;align=center;verticalAlign=middle;resizable=0;points=[];autosize=1;strokeColor=none;fillColor=none;" vertex="1" parent="1">
          <mxGeometry x="120" y="108" width="140" height="30" as="geometry" />
        </mxCell>
        <mxCell id="khGtBQmKXjCLMMluN2qJ-2" value="if Validar_Token()==false" style="shape=umlFrame;whiteSpace=wrap;html=1;pointerEvents=0;width=135;height=50;" vertex="1" parent="1">
          <mxGeometry x="95" y="200" width="385" height="140" as="geometry" />
        </mxCell>
        <mxCell id="khGtBQmKXjCLMMluN2qJ-6" value="&lt;font style=&quot;font-size: 10px;&quot;&gt;IngresarToken();&lt;/font&gt;" style="text;html=1;align=center;verticalAlign=middle;resizable=0;points=[];autosize=1;strokeColor=none;fillColor=none;" vertex="1" parent="1">
          <mxGeometry x="135" y="150" width="100" height="30" as="geometry" />
        </mxCell>
        <mxCell id="khGtBQmKXjCLMMluN2qJ-18" value="" style="endArrow=classic;html=1;rounded=0;" edge="1" parent="1">
          <mxGeometry width="50" height="50" relative="1" as="geometry">
            <mxPoint x="105.25" y="170" as="sourcePoint" />
            <mxPoint x="264.7499999999998" y="170" as="targetPoint" />
          </mxGeometry>
        </mxCell>
        <mxCell id="khGtBQmKXjCLMMluN2qJ-19" value="" style="endArrow=classic;html=1;rounded=0;" edge="1" parent="1">
          <mxGeometry width="50" height="50" relative="1" as="geometry">
            <mxPoint x="281" y="190" as="sourcePoint" />
            <mxPoint x="425.5" y="190" as="targetPoint" />
          </mxGeometry>
        </mxCell>
        <mxCell id="khGtBQmKXjCLMMluN2qJ-20" value="Validar_Token();" style="text;html=1;align=center;verticalAlign=middle;resizable=0;points=[];autosize=1;strokeColor=none;fillColor=none;" vertex="1" parent="1">
          <mxGeometry x="300" y="160" width="110" height="30" as="geometry" />
        </mxCell>
        <mxCell id="khGtBQmKXjCLMMluN2qJ-21" value="" style="endArrow=classic;html=1;rounded=0;" edge="1" parent="1">
          <mxGeometry width="50" height="50" relative="1" as="geometry">
            <mxPoint x="420.19" y="359.17" as="sourcePoint" />
            <mxPoint x="269.81034482758605" y="359.17" as="targetPoint" />
          </mxGeometry>
        </mxCell>
        <mxCell id="khGtBQmKXjCLMMluN2qJ-22" value="Return(OK);" style="text;html=1;align=center;verticalAlign=middle;resizable=0;points=[];autosize=1;strokeColor=none;fillColor=none;" vertex="1" parent="1">
          <mxGeometry x="300" y="340" width="90" height="30" as="geometry" />
        </mxCell>
        <mxCell id="khGtBQmKXjCLMMluN2qJ-25" value="" style="endArrow=classic;html=1;rounded=0;entryX=0.047;entryY=1.001;entryDx=0;entryDy=0;entryPerimeter=0;" edge="1" parent="1">
          <mxGeometry width="50" height="50" relative="1" as="geometry">
            <mxPoint x="265.62" y="370.0000000000001" as="sourcePoint" />
            <mxPoint x="104.38999999999982" y="370.0000000000001" as="targetPoint" />
          </mxGeometry>
        </mxCell>
        <mxCell id="khGtBQmKXjCLMMluN2qJ-26" value="&lt;font style=&quot;font-size: 10px;&quot;&gt;Mensaje_Seleccionar_Candidato();&lt;/font&gt;" style="text;html=1;align=center;verticalAlign=middle;resizable=0;points=[];autosize=1;strokeColor=none;fillColor=none;" vertex="1" parent="1">
          <mxGeometry x="95" y="345" width="180" height="30" as="geometry" />
        </mxCell>
        <mxCell id="khGtBQmKXjCLMMluN2qJ-29" value="" style="endArrow=classic;html=1;rounded=0;" edge="1" parent="1">
          <mxGeometry width="50" height="50" relative="1" as="geometry">
            <mxPoint x="105.15034482758605" y="409.99999999999983" as="sourcePoint" />
            <mxPoint x="274.84" y="409.99999999999983" as="targetPoint" />
          </mxGeometry>
        </mxCell>
        <mxCell id="khGtBQmKXjCLMMluN2qJ-30" value="Ingrese_Candidato();" style="text;html=1;align=center;verticalAlign=middle;resizable=0;points=[];autosize=1;strokeColor=none;fillColor=none;" vertex="1" parent="1">
          <mxGeometry x="110" y="385" width="140" height="30" as="geometry" />
        </mxCell>
        <mxCell id="khGtBQmKXjCLMMluN2qJ-31" value="" style="endArrow=classic;html=1;rounded=0;" edge="1" parent="1">
          <mxGeometry width="50" height="50" relative="1" as="geometry">
            <mxPoint x="271" y="420" as="sourcePoint" />
            <mxPoint x="425.5" y="420.0000000000001" as="targetPoint" />
            <Array as="points">
              <mxPoint x="341" y="420" />
            </Array>
          </mxGeometry>
        </mxCell>
        <mxCell id="khGtBQmKXjCLMMluN2qJ-32" value="Registrar_Voto();" style="text;html=1;align=center;verticalAlign=middle;resizable=0;points=[];autosize=1;strokeColor=none;fillColor=none;" vertex="1" parent="1">
          <mxGeometry x="290" y="390" width="110" height="30" as="geometry" />
        </mxCell>
        <mxCell id="khGtBQmKXjCLMMluN2qJ-33" value="" style="endArrow=classic;html=1;rounded=0;" edge="1" parent="1">
          <mxGeometry width="50" height="50" relative="1" as="geometry">
            <mxPoint x="422.69" y="450" as="sourcePoint" />
            <mxPoint x="267.31034482758605" y="450.0000000000001" as="targetPoint" />
            <Array as="points">
              <mxPoint x="387.5" y="450" />
            </Array>
          </mxGeometry>
        </mxCell>
        <mxCell id="1vJbEC7eMpVlIRLg8ZBu-1" value="Return(OK)" style="text;html=1;align=center;verticalAlign=middle;resizable=0;points=[];autosize=1;strokeColor=none;fillColor=none;" vertex="1" parent="1">
          <mxGeometry x="305" y="420" width="80" height="30" as="geometry" />
        </mxCell>
        <mxCell id="1vJbEC7eMpVlIRLg8ZBu-2" value="" style="endArrow=classic;html=1;rounded=0;" edge="1" parent="1">
          <mxGeometry width="50" height="50" relative="1" as="geometry">
            <mxPoint x="269.84" y="480.0000000000001" as="sourcePoint" />
            <mxPoint x="100.15034482758605" y="480.0000000000001" as="targetPoint" />
            <Array as="points">
              <mxPoint x="220.34" y="480" />
            </Array>
          </mxGeometry>
        </mxCell>
        <mxCell id="1vJbEC7eMpVlIRLg8ZBu-3" value="&lt;font style=&quot;font-size: 10px;&quot;&gt;Mensaje_Voto_Registrado();&lt;/font&gt;" style="text;html=1;align=center;verticalAlign=middle;resizable=0;points=[];autosize=1;strokeColor=none;fillColor=none;" vertex="1" parent="1">
          <mxGeometry x="110" y="450" width="150" height="30" as="geometry" />
        </mxCell>
        <mxCell id="1vJbEC7eMpVlIRLg8ZBu-5" value="" style="endArrow=classic;html=1;rounded=0;exitX=1.033;exitY=0.833;exitDx=0;exitDy=0;exitPerimeter=0;" edge="1" parent="1" source="1vJbEC7eMpVlIRLg8ZBu-7">
          <mxGeometry width="50" height="50" relative="1" as="geometry">
            <mxPoint x="277.5" y="270" as="sourcePoint" />
            <mxPoint x="102.49999999999977" y="270.0000000000001" as="targetPoint" />
          </mxGeometry>
        </mxCell>
        <mxCell id="1vJbEC7eMpVlIRLg8ZBu-7" value="&lt;font style=&quot;font-size: 10px;&quot;&gt;Mensaje_Token_Incorrecto();&lt;/font&gt;" style="text;html=1;align=center;verticalAlign=middle;resizable=0;points=[];autosize=1;strokeColor=none;fillColor=none;" vertex="1" parent="1">
          <mxGeometry x="115" y="245" width="150" height="30" as="geometry" />
        </mxCell>
        <mxCell id="1vJbEC7eMpVlIRLg8ZBu-8" value="" style="endArrow=classic;html=1;rounded=0;" edge="1" parent="1" source="aM9ryv3xv72pqoxQDRHE-6">
          <mxGeometry width="50" height="50" relative="1" as="geometry">
            <mxPoint x="255" y="300" as="sourcePoint" />
            <mxPoint x="105" y="300" as="targetPoint" />
            <Array as="points">
              <mxPoint x="154.61" y="300" />
            </Array>
          </mxGeometry>
        </mxCell>
        <mxCell id="1vJbEC7eMpVlIRLg8ZBu-9" value="&lt;font style=&quot;font-size: 10px;&quot;&gt;MensajeIngrese_Token();&lt;/font&gt;" style="text;html=1;align=center;verticalAlign=middle;resizable=0;points=[];autosize=1;strokeColor=none;fillColor=none;" vertex="1" parent="1">
          <mxGeometry x="115" y="270" width="140" height="30" as="geometry" />
        </mxCell>
        <mxCell id="1vJbEC7eMpVlIRLg8ZBu-10" value="" style="endArrow=classic;html=1;rounded=0;" edge="1" parent="1" target="aM9ryv3xv72pqoxQDRHE-6">
          <mxGeometry width="50" height="50" relative="1" as="geometry">
            <mxPoint x="105.5" y="320" as="sourcePoint" />
            <mxPoint x="264.9999999999998" y="320" as="targetPoint" />
          </mxGeometry>
        </mxCell>
        <mxCell id="1vJbEC7eMpVlIRLg8ZBu-12" value="IngresarToken();" style="text;html=1;align=center;verticalAlign=middle;resizable=0;points=[];autosize=1;strokeColor=none;fillColor=none;" vertex="1" parent="1">
          <mxGeometry x="130" y="298" width="110" height="30" as="geometry" />
        </mxCell>
        <mxCell id="1vJbEC7eMpVlIRLg8ZBu-16" value="" style="endArrow=classic;html=1;rounded=0;" edge="1" parent="1">
          <mxGeometry width="50" height="50" relative="1" as="geometry">
            <mxPoint x="281" y="328" as="sourcePoint" />
            <mxPoint x="425.5" y="328" as="targetPoint" />
          </mxGeometry>
        </mxCell>
        <mxCell id="1vJbEC7eMpVlIRLg8ZBu-17" value="&lt;font style=&quot;font-size: 10px;&quot;&gt;Validar_Token&lt;/font&gt;();" style="text;html=1;align=center;verticalAlign=middle;resizable=0;points=[];autosize=1;strokeColor=none;fillColor=none;" vertex="1" parent="1">
          <mxGeometry x="305" y="300" width="100" height="30" as="geometry" />
        </mxCell>
      </root>
    </mxGraphModel>
  </diagram>
</mxfile>
